<?xml version="1.0" encoding="utf-8"?>
<!-- Generator: Adobe Illustrator 27.5.0, SVG Export Plug-In . SVG Version: 6.00 Build 0)  -->
<svg version="1.1" id="Calque_1" xmlns="http://www.w3.org/2000/svg" xmlns:xlink="http://www.w3.org/1999/xlink" x="0px" y="0px"
	 viewBox="0 0 1920 544.6" style="enable-background:new 0 0 1920 544.6;" xml:space="preserve">
<style type="text/css">
	.st0{fill:#FFFFFF;}
</style>
<path class="st0" d="M241.9,221.7v23h-85.8v-23h31l-21.3-59.6h-92l-21.3,59.6h31v23H0v-23h23.4L105.3,0h32.1l80.9,221.7H241.9z
	 M157.6,139.8L119.9,30.3L82.3,139.8H157.6z"/>
<path class="st0" d="M365.3,221.7v23h-94.8v-23h35.6v-190l-35.9,32.8l-17.1-17.8l51.9-46h28.9v221H365.3z"/>
<path class="st0" d="M499.9,221.7v23H405v-23h35.6v-190l-35.9,32.8l-17.1-17.8l51.9-46h28.9v221H499.9z"/>
<path class="st0" d="M717,86.4h-24L626.7,258c-12.9,33.8-38,53.3-66.2,53.3c-8.4,0-15-0.3-20.2-1.4c0,0-18.9-4.7-17.9-15.3
	c1.4-15.4,17.9-10.8,17.9-10.8c5.2,1,11.9,1.7,19.2,1.7c18.5,0,34.2-12.9,42.9-34.9l0.7-1.7L538.5,86.4h-24.1v-23h81.9v23h-27.9
	l48.8,130.4l48.1-130.4h-27.9v-23H717V86.4z"/>
<path class="st0" d="M238.1,306.9h-29.3v133.2c0,56.5-32.8,93.1-89.6,93.1s-89.6-36.6-89.6-93.1V306.9H0.3v-23h89.9v23H58.9v134.6
	c0,40.1,23,65.2,60.3,65.2s60.3-25.1,60.3-65.2V306.9h-31.4v-23H238v23H238.1z"/>
<path class="st0" d="M472.3,504.9v23h-79.5v-23h25.1v-93.1c0-26.5-19.2-43.6-46.7-43.6c-27.9,0-50.9,21.3-50.9,49.2v87.5h25.1v23
	H266v-23h26.5V369.7H266v-23h54v28.9c10.8-20.2,32.1-33.5,58.6-33.5c39.7,0,67.3,26.5,67.3,66.6v96.2L472.3,504.9L472.3,504.9z"/>
<path class="st0" d="M581.8,504.9v23h-80.9v-23h26.5V369.7h-26.5v-23h54.4V505h26.5V504.9z"/>
<path class="st0" d="M797.5,369.7h-23.7l-61.3,159.7h-31.4l-61.4-159.7h-24.1v-23h81.6v23h-27.5l48.1,130l48.5-130h-27.5v-23h78.8
	L797.5,369.7L797.5,369.7z"/>
<path class="st0" d="M986.5,440.4H841.8c2.4,40.8,26.5,67.6,64.5,67.6c22.7,0,43.6-11.2,56.5-27.9l18.1,13.2
	c-16.7,26.5-43.9,39.7-76,39.7c-55.8,0-92-41.8-92-98.3c0-51.6,37-93.8,91-93.8c51.6,0,82.6,39.7,82.6,88.2L986.5,440.4L986.5,440.4
	z M956.8,418.1c0-30.3-21.6-53.3-54.4-53.3c-29.3,0-53.7,18.5-59.3,53.3H956.8z"/>
<path class="st0" d="M1141.2,343.2v31.4c-6.3-1-13.6-2.1-20.2-2.1c-30,0-49.5,24.7-49.5,57.9V505h31.4v23h-85.8v-23h26.5V369.7
	h-26.5v-23h54V384c8.4-22.3,27.5-42.2,52.6-42.2C1129.7,341.8,1136,342.5,1141.2,343.2z"/>
<path class="st0" d="M1302.6,477.4c0,33.1-25.1,55.1-60.7,55.1c-20.6,0-37.3-8.4-49.2-22.7v18.1H1167v-55.1h21.6
	c6.6,22.7,26.5,35.6,51.6,35.6c20.9,0,35.2-11.5,35.2-27.9c0-46.7-107.7-20.2-107-88.5c0.3-29.6,22.7-49.8,54.4-49.8
	c18.5,0,34.9,8.4,46,22v-17.4h25.8v53H1273c-6.3-21.6-24.7-35.6-46.4-35.6c-18.5,0-31.4,10.5-31.4,25.8
	C1195.3,434.9,1302.6,407.3,1302.6,477.4z"/>
<path class="st0" d="M1417.7,504.9v23h-80.9v-23h26.5V369.7h-26.5v-23h54.4V505h26.5V504.9z M1355.6,295.4
	c0-10.8,8.4-19.5,19.2-19.5c11.2,0,19.9,8.7,19.9,19.5c0,11.2-8.7,19.5-19.9,19.5C1364,314.9,1355.6,306.6,1355.6,295.4z"/>
<path class="st0" d="M1467.8,473.5V369.7h-26.5v-23h26.5v-38h27.9v38h39.7v23h-39.7v104.9c0,16.7,8.7,29.6,24.1,29.6
	c5.9,0,12.9-1,18.5-2.4v24.7c-6.3,1.7-15,3.1-22.7,3.1C1483.5,529.7,1467.8,505.6,1467.8,473.5z"/>
<path class="st0" d="M1741.1,440.4h-144.7c2.4,40.8,26.5,67.6,64.5,67.6c22.7,0,43.6-11.2,56.5-27.9l18.1,13.2
	c-16.7,26.5-43.9,39.7-76,39.7c-55.8,0-92-41.8-92-98.3c0-51.6,37-93.8,91-93.8c51.6,0,82.6,39.7,82.6,88.2V440.4z M1711.5,418.1
	c0-30.3-21.6-53.3-54.4-53.3c-29.3,0-53.7,18.5-59.3,53.3H1711.5z M1635.9,321.9l25.1-49.5h30.7l-30.7,49.5H1635.9z"/>
<path class="st0" d="M1913,477.4c0,33.1-25.1,55.1-60.7,55.1c-20.6,0-37.3-8.4-49.2-22.7v18.1h-25.8v-55.1h21.6
	c6.6,22.7,26.5,35.6,51.6,35.6c20.9,0,35.2-11.5,35.2-27.9c0-46.7-107.7-20.2-107-88.5c0.3-29.6,22.7-49.8,54.4-49.8
	c18.5,0,34.9,8.4,46,22v-17.4h25.8v53h-21.6c-6.3-21.6-24.7-35.6-46.4-35.6c-18.5,0-31.4,10.5-31.4,25.8
	C1805.6,434.9,1913,407.3,1913,477.4z"/>
</svg>
