<?xml version="1.0" standalone="no"?>
<!DOCTYPE svg PUBLIC "-//W3C//DTD SVG 20010904//EN"
 "http://www.w3.org/TR/2001/REC-SVG-20010904/DTD/svg10.dtd">
<svg version="1.0" xmlns="http://www.w3.org/2000/svg"
 width="700.000000pt" height="700.000000pt" viewBox="0 0 700.000000 700.000000"
 preserveAspectRatio="xMidYMid meet">
<metadata>
Created by potrace 1.14, written by Peter Selinger 2001-2017
</metadata>
<g transform="translate(0.000000,700.000000) scale(0.100000,-0.100000)"
fill="#000000" stroke="none">
<path d="M3278 6995 c-1 -1 -42 -5 -89 -9 -47 -4 -95 -8 -105 -10 -10 -2 -41
-7 -69 -10 -428 -56 -875 -210 -1270 -439 -103 -60 -265 -165 -315 -204 -8 -6
-51 -40 -95 -74 -353 -275 -673 -651 -897 -1054 -49 -87 -148 -289 -148 -301
0 -2 -9 -23 -20 -47 -57 -123 -157 -435 -186 -582 -2 -11 -10 -54 -19 -95 -29
-147 -36 -200 -52 -370 -15 -164 -8 -592 12 -711 2 -13 6 -46 9 -74 9 -78 22
-152 51 -285 21 -96 91 -339 114 -395 5 -11 25 -65 46 -120 63 -166 249 -531
312 -610 4 -6 34 -49 65 -95 170 -255 433 -535 708 -755 92 -74 370 -265 386
-265 4 0 15 -6 23 -14 26 -22 298 -158 411 -205 267 -111 589 -200 859 -237
25 -3 57 -8 71 -10 163 -25 682 -25 842 1 13 2 46 7 73 10 71 10 87 13 115 18
14 3 43 8 65 12 22 4 76 16 120 27 44 10 87 21 96 23 25 5 157 45 219 65 178
57 568 235 660 300 15 11 33 20 39 20 6 0 11 5 11 10 0 6 5 10 10 10 15 0 220
141 330 227 152 118 324 280 450 422 36 41 70 79 76 85 6 6 48 61 94 121 150
197 277 405 383 628 26 53 47 99 47 102 0 2 11 28 24 57 57 127 151 421 182
573 17 81 54 301 59 350 4 33 9 71 11 85 9 47 11 525 3 605 -15 165 -21 220
-24 225 -2 3 -6 30 -10 60 -9 75 -69 337 -99 435 -174 571 -466 1062 -881
1478 -384 385 -846 672 -1360 845 -168 57 -420 119 -555 137 -19 3 -46 7 -60
10 -13 2 -52 7 -86 11 -33 3 -74 8 -90 10 -32 5 -540 14 -546 9z m371 -1111
c292 -84 460 -392 373 -681 -85 -279 -367 -439 -656 -373 -79 18 -185 79 -251
145 -151 151 -201 378 -126 575 101 266 390 412 660 334z m-1498 -1189 c18 -4
89 -32 158 -62 196 -85 453 -167 616 -199 11 -2 43 -8 70 -13 127 -25 317 -43
468 -44 119 -1 326 8 373 17 11 2 42 7 69 10 257 36 489 103 782 228 145 61
150 62 238 62 107 1 160 -20 230 -91 70 -70 100 -150 93 -252 -6 -83 -37 -149
-99 -211 -40 -40 -72 -57 -216 -118 -265 -111 -410 -159 -637 -211 -70 -17
-131 -32 -134 -35 -8 -9 -6 -715 2 -761 4 -22 102 -325 217 -673 189 -568 211
-640 211 -700 1 -307 -390 -443 -581 -202 -34 43 -59 109 -217 585 -193 580
-196 586 -269 599 -39 8 -91 -11 -118 -41 -10 -11 -96 -254 -191 -539 -95
-286 -181 -534 -190 -553 -83 -159 -288 -221 -449 -134 -101 55 -168 168 -168
284 -1 49 32 155 211 692 116 349 213 645 216 658 3 13 7 196 8 407 2 419 7
385 -59 397 -49 8 -68 12 -115 25 -25 7 -52 13 -60 15 -62 12 -338 102 -415
135 -340 147 -362 161 -414 270 -37 78 -37 190 1 271 65 141 218 217 369 184z"/>
</g>
</svg>
